<?xml version="1.0" encoding="utf-8"?>
<!-- Generator: Adobe Illustrator 26.0.3, SVG Export Plug-In . SVG Version: 6.00 Build 0)  -->
<svg version="1.1" id="Layer_1" xmlns="http://www.w3.org/2000/svg" xmlns:xlink="http://www.w3.org/1999/xlink" x="0px" y="0px"
	 viewBox="0 0 531 165" style="enable-background:new 0 0 531 165;" xml:space="preserve">
<style type="text/css">
	.st0{display:none;}
	.st1{opacity:0.72;fill:#000;}
	.st2{fill:#000;}
	.st3{opacity:0.15;fill:#000;enable-background:new    ;}
	.st4{opacity:0.97;fill:#000;enable-background:new    ;}
	.st5{opacity:0.77;fill:#000;}
</style>
<rect x="-567.5" y="-23" class="st0" width="1145.5" height="231"/>
<g>
	<rect x="323.1" y="63.1" class="st2" width="15" height="15"/>
	<path class="st2" d="M10.8,69.6h15.4v83.7H10.8V69.6z"/>
	<path class="st2" d="M33.8,93.1h15.3v60.1H33.8V93.1z"/>
	<path class="st2" d="M57.7,93.1h15.5v6c3.6-4.4,8.7-7.2,14.6-7.2c6.8,0,13,3.6,17.2,9.4c3.9-5.8,10.1-9.4,17.9-9.4
		c12.8,0,22.2,10.1,22.2,23.3v38.1h-15.5v-36.9c0-6-4.2-10.6-10-10.6c-6.3,0-10.4,5.1-10.4,11.3v36.1H93.6v-36.9
		c0-6-4.2-10.6-10.3-10.6c-6.2,0-10.1,5.1-10.1,11.3v36.1H57.7V93.1z"/>
	<path class="st2" d="M214.5,125.9h-47.4c1.2,9.8,8.1,16,16.9,16c6.3,0,12.2-3.1,15.4-8.7l12.4,5.1c-4.9,9.9-15,16.1-27.7,16.1
		c-19.1,0-32.2-13.8-32.2-31.3c0-17.4,13.4-31.3,31.7-31.3c17.3,0,30.7,12.3,30.9,30.7L214.5,125.9z M168.7,114.1h29.5
		c-2.5-6.1-7.3-9.9-14.3-9.9C176.6,104.2,171.3,108,168.7,114.1z"/>
	<path class="st2" d="M236.4,145.5l-0.4,7.8h-14.4V69.6h15.5v30.3c4.7-5.5,11.8-8.2,19.2-8.2c16.8,0,30.1,14,30.1,31.4
		c0,17.5-13.2,31.4-30.1,31.4C248,154.4,241,151.1,236.4,145.5z M270.9,123c0-9.9-7.5-17.5-17.2-17.5c-9.5,0-17.2,7.6-17.2,17.5
		s7.6,17.7,17.2,17.7C263.4,140.7,270.9,132.9,270.9,123z"/>
	<path class="st2" d="M293.1,93.1h15.3v60.1h-15.3V93.1z"/>
	<path class="st2" d="M323.1,93.2h-14.9v-15h30v75.1h-15.1V93.2z"/>
	<path class="st2" d="M346.7,153h70l-21.4,2.2H421l0,0v0.1h0.1l0,0l0,0h26.7l0,0c0.5,0,1-0.1,1.5-0.2h13.1l-8.9-1.3
		c0.4-0.2,0.7-0.4,1.1-0.6l25.8-2.2l-20.6-2.6c0.1-0.1,0.1-0.2,0.2-0.2h37.3l-36.6-1.2c1.1-2.1,1.8-4.4,1.9-6.9
		c0-1.2-0.1-2.3-0.3-3.4c1.9-2.3,3-3.4,3.6-6.4c6.4-4.3,11.6-12.1,14.2-19.5c0-0.1-2.7-8.2-9.4-12.2l0,0c0.9-2.5,1.4-5.2,1.3-8
		c0-1.2-0.2-2.4-0.4-3.5c1.9-1,3.4-2.6,4.2-4.7c0.3-0.7,0.4-1.4,0.5-2.1l27.2,4.7c-3.7,15-11.9,28.6-18.8,37.1
		c12.5-7.5,21.2-18.9,27-35.9L517,87c0.1,0,0.2,0,0.4,0c1.3,0,2.5-1,2.7-2.3c0.2-1.5-0.8-2.8-2.3-3.1l-5-0.7
		c2.4-16.4-2.1-32.2-8.9-42.9c5.7,20.6,1.1,40,0.8,41.6l-27.1-4.7c0.1-1.1,0.1-1.8,0.1-1.8c-0.5-1.5-1.7-2.7-3.3-3
		c-1-0.2-2,0-2.8,0.4c-0.6-0.7-1.5-1.2-2.5-1.4c-1-0.2-2.1,0-2.9,0.5c-0.6-0.8-1.5-1.3-2.6-1.6c-1.9-0.4-3.6,1.9-4.5,3.8l-7.3-1.3
		c0.6-1.6,1.2-4,1.2-5.7c5.2-4.4,5.5-12.8,6.7-16.3c4.6-12.3,16.3-15.1,22.6-15.7c2.5-0.2,4-0.2,5.9,1.5l0.4,0.3
		c2.2,1.9,5.7,1.6,7.5-0.7c1.7-2.2,1.2-5.5-0.9-7.3c0,0-2.3-2-2.5-2.2c-1.4-1.2-3.2-2.7-5.6-4.3L487,20c0,0-1.3-0.9-3.8-2.2
		c-3.6-2.1-7.8-4-12.5-5.2c0,0,0-0.1-0.1-0.1c-16.4-5.1-44.9-6-66.7,20.7c0,0-10.3,9.8-3.3,16.3c-0.1,0.6-0.2,1.2-0.2,1.8
		c0,1.2,0,2.4,0.1,3.5c-0.2,0-0.3,0.1-0.5,0.1l-3.9,1.4c-2.7,1-4.1,4-3.1,6.7c0.9,2.5,3.5,3.8,6.1,3.2c-4.5,6.7-7.8,16.2-2.4,29.8
		c1.2-5.1,2.6-6.7,2.6-6.7s-1.8,10.6,4.2,18c1.2-7.6,3.6-9.3,3.6-9.3s-2.7,11.1,4.4,18.4c-5.1-0.8-11.3,2.2-13.1,7.2
		c-1.4,3.9-0.4,7.9,2.1,10.8h-20.1l-3.4,0.5l-9.7,5.3l0,0l-4.5,2.5l13-1.1l-7.7,3.1l21,2.6L346.7,153z M450.4,76l8.5,1.5
		c0,0.1,0,0.1,0,0.2c-0.3,2.9,0.6,6,0.6,6C456.6,79.4,451.6,76.7,450.4,76z M395.7,140.8l-4.7-0.9l7.8-1.9h10l12-1.7l-10.9-1.1h17.8
		l0,0c1,0,2-0.2,3-0.4c0.6,1,1.3,2,2.1,2.9c-5.7-2-11.9,1-13.9,6.7c-0.1,0.2-0.1,0.5-0.2,0.7l-6.8-0.6l-11.8-2l-8.7,0.2L395.7,140.8
		z"/>

		<rect x="355.7" y="68.2" transform="matrix(0.532 -0.8467 0.8467 0.532 105.8201 342.9659)" class="st2" width="15" height="15.1"/>

		<rect x="353.4" y="120.7" transform="matrix(0.5739 -0.8189 0.8189 0.5739 48.7383 350.1754)" class="st2" width="15" height="15.1"/>
	<rect x="33.8" y="69.5" class="st4" width="15.1" height="15"/>
	<rect x="338.1" y="78.1" class="st2" width="15.1" height="15"/>
</g>
</svg>
